<svg width="28" height="29" viewBox="0 0 28 29" fill="none" xmlns="http://www.w3.org/2000/svg">
<g clip-path="url(#clip0_19_18)">
<path d="M6.99999 20.3334H21V18H6.99999V20.3334ZM6.99999 16.8334H21V14.5H6.99999V16.8334ZM6.99999 13.3334H21V11H6.99999V13.3334ZM25.6667 29.6667L21 25H4.66666C4.02499 25 3.47588 24.7718 3.01933 24.3152C2.56277 23.8587 2.33411 23.3092 2.33333 22.6667V8.66671C2.33333 8.02504 2.56199 7.47593 3.01933 7.01937C3.47666 6.56282 4.02577 6.33415 4.66666 6.33337H23.3333C23.975 6.33337 24.5245 6.56204 24.9818 7.01937C25.4392 7.47671 25.6674 8.02582 25.6667 8.66671V29.6667ZM4.66666 22.6667H21.9917L23.3333 23.9792V8.66671H4.66666V22.6667Z" fill="#666666"/>
</g>
<defs>
<clipPath id="clip0_19_18">
<rect width="28" height="28" fill="white" transform="translate(0 0.5)"/>
</clipPath>
</defs>
</svg>
